<mxfile host="app.diagrams.net" modified="2023-03-20T18:50:18.756Z" agent="5.0 (Windows NT 10.0; Win64; x64) AppleWebKit/537.36 (KHTML, like Gecko) Chrome/111.0.0.0 Safari/537.36" etag="yhxqUwRX5hPKvwaVpEBQ" version="21.0.8" type="github">
  <diagram name="Page-1" id="Np8JfVHP6Mqmu2AVbxRq">
    <mxGraphModel dx="1056" dy="697" grid="1" gridSize="10" guides="1" tooltips="1" connect="1" arrows="1" fold="1" page="1" pageScale="1" pageWidth="850" pageHeight="1100" math="0" shadow="0">
      <root>
        <mxCell id="0" />
        <mxCell id="1" parent="0" />
        <mxCell id="mIU1D5ZuT8uLv7KCduvP-1" value="" style="html=1;verticalLabelPosition=bottom;align=center;labelBackgroundColor=#ffffff;verticalAlign=top;strokeWidth=2;strokeColor=#0080F0;shadow=0;dashed=0;shape=mxgraph.ios7.icons.monitor;" vertex="1" parent="1">
          <mxGeometry x="260" y="160" width="230" height="130" as="geometry" />
        </mxCell>
        <mxCell id="mIU1D5ZuT8uLv7KCduvP-2" value="" style="html=1;verticalLabelPosition=bottom;align=center;labelBackgroundColor=#ffffff;verticalAlign=top;strokeWidth=2;strokeColor=#0080F0;shadow=0;dashed=0;shape=mxgraph.ios7.icons.monitor;" vertex="1" parent="1">
          <mxGeometry x="170" y="170" width="90" height="70" as="geometry" />
        </mxCell>
        <mxCell id="mIU1D5ZuT8uLv7KCduvP-4" value="" style="html=1;verticalLabelPosition=bottom;align=center;labelBackgroundColor=#ffffff;verticalAlign=top;strokeWidth=2;strokeColor=#0080F0;shadow=0;dashed=0;shape=mxgraph.ios7.icons.monitor;" vertex="1" parent="1">
          <mxGeometry x="490" y="170" width="90" height="70" as="geometry" />
        </mxCell>
        <mxCell id="mIU1D5ZuT8uLv7KCduvP-6" value="" style="html=1;verticalLabelPosition=bottom;align=center;labelBackgroundColor=#ffffff;verticalAlign=top;strokeWidth=2;strokeColor=#0080F0;shadow=0;dashed=0;shape=mxgraph.ios7.icons.monitor;rotation=-90;" vertex="1" parent="1">
          <mxGeometry x="490" y="370" width="90" height="70" as="geometry" />
        </mxCell>
        <mxCell id="mIU1D5ZuT8uLv7KCduvP-7" value="" style="html=1;verticalLabelPosition=bottom;align=center;labelBackgroundColor=#ffffff;verticalAlign=top;strokeWidth=2;strokeColor=#0080F0;shadow=0;dashed=0;shape=mxgraph.ios7.icons.monitor;" vertex="1" parent="1">
          <mxGeometry x="270" y="350" width="230" height="130" as="geometry" />
        </mxCell>
        <mxCell id="mIU1D5ZuT8uLv7KCduvP-8" value="" style="html=1;verticalLabelPosition=bottom;align=center;labelBackgroundColor=#ffffff;verticalAlign=top;strokeWidth=2;strokeColor=#0080F0;shadow=0;dashed=0;shape=mxgraph.ios7.icons.monitor;rotation=90;" vertex="1" parent="1">
          <mxGeometry x="190" y="370" width="90" height="70" as="geometry" />
        </mxCell>
        <mxCell id="mIU1D5ZuT8uLv7KCduvP-9" value="" style="html=1;verticalLabelPosition=bottom;align=center;labelBackgroundColor=#ffffff;verticalAlign=top;strokeWidth=2;strokeColor=#0080F0;shadow=0;dashed=0;shape=mxgraph.ios7.icons.monitor;" vertex="1" parent="1">
          <mxGeometry x="180" y="540" width="90" height="70" as="geometry" />
        </mxCell>
        <mxCell id="mIU1D5ZuT8uLv7KCduvP-10" value="" style="html=1;verticalLabelPosition=bottom;align=center;labelBackgroundColor=#ffffff;verticalAlign=top;strokeWidth=2;strokeColor=#0080F0;shadow=0;dashed=0;shape=mxgraph.ios7.icons.monitor;rotation=-90;" vertex="1" parent="1">
          <mxGeometry x="490" y="540" width="90" height="70" as="geometry" />
        </mxCell>
        <mxCell id="mIU1D5ZuT8uLv7KCduvP-11" value="" style="html=1;verticalLabelPosition=bottom;align=center;labelBackgroundColor=#ffffff;verticalAlign=top;strokeWidth=2;strokeColor=#0080F0;shadow=0;dashed=0;shape=mxgraph.ios7.icons.monitor;" vertex="1" parent="1">
          <mxGeometry x="270" y="520" width="230" height="130" as="geometry" />
        </mxCell>
        <mxCell id="mIU1D5ZuT8uLv7KCduvP-12" value="" style="html=1;verticalLabelPosition=bottom;align=center;labelBackgroundColor=#ffffff;verticalAlign=top;strokeWidth=2;strokeColor=#0080F0;shadow=0;dashed=0;shape=mxgraph.ios7.icons.monitor;" vertex="1" parent="1">
          <mxGeometry x="280" y="690" width="230" height="130" as="geometry" />
        </mxCell>
        <mxCell id="mIU1D5ZuT8uLv7KCduvP-13" value="" style="html=1;verticalLabelPosition=bottom;align=center;labelBackgroundColor=#ffffff;verticalAlign=top;strokeWidth=2;strokeColor=#0080F0;shadow=0;dashed=0;shape=mxgraph.ios7.icons.monitor;" vertex="1" parent="1">
          <mxGeometry x="510" y="720" width="90" height="70" as="geometry" />
        </mxCell>
        <mxCell id="mIU1D5ZuT8uLv7KCduvP-14" value="" style="html=1;verticalLabelPosition=bottom;align=center;labelBackgroundColor=#ffffff;verticalAlign=top;strokeWidth=2;strokeColor=#0080F0;shadow=0;dashed=0;shape=mxgraph.ios7.icons.monitor;" vertex="1" parent="1">
          <mxGeometry x="600" y="720" width="90" height="70" as="geometry" />
        </mxCell>
        <mxCell id="mIU1D5ZuT8uLv7KCduvP-15" value="49&quot; curved" style="text;strokeColor=none;fillColor=none;html=1;fontSize=24;fontStyle=1;verticalAlign=middle;align=center;" vertex="1" parent="1">
          <mxGeometry x="310" y="120" width="100" height="40" as="geometry" />
        </mxCell>
        <mxCell id="mIU1D5ZuT8uLv7KCduvP-16" value="32&quot; flat" style="text;strokeColor=none;fillColor=none;html=1;fontSize=24;fontStyle=1;verticalAlign=middle;align=center;" vertex="1" parent="1">
          <mxGeometry x="165" y="110" width="100" height="40" as="geometry" />
        </mxCell>
        <mxCell id="mIU1D5ZuT8uLv7KCduvP-17" value="32&quot; flat" style="text;strokeColor=none;fillColor=none;html=1;fontSize=24;fontStyle=1;verticalAlign=middle;align=center;" vertex="1" parent="1">
          <mxGeometry x="480" y="110" width="100" height="40" as="geometry" />
        </mxCell>
        <mxCell id="mIU1D5ZuT8uLv7KCduvP-18" value="49&quot; curved" style="text;strokeColor=none;fillColor=none;html=1;fontSize=24;fontStyle=1;verticalAlign=middle;align=center;" vertex="1" parent="1">
          <mxGeometry x="325" y="320" width="100" height="40" as="geometry" />
        </mxCell>
        <mxCell id="mIU1D5ZuT8uLv7KCduvP-19" value="32&quot; flat" style="text;strokeColor=none;fillColor=none;html=1;fontSize=24;fontStyle=1;verticalAlign=middle;align=center;" vertex="1" parent="1">
          <mxGeometry x="180" y="310" width="100" height="40" as="geometry" />
        </mxCell>
        <mxCell id="mIU1D5ZuT8uLv7KCduvP-20" value="32&quot; flat" style="text;strokeColor=none;fillColor=none;html=1;fontSize=24;fontStyle=1;verticalAlign=middle;align=center;" vertex="1" parent="1">
          <mxGeometry x="495" y="310" width="100" height="40" as="geometry" />
        </mxCell>
        <mxCell id="mIU1D5ZuT8uLv7KCduvP-21" value="49&quot; curved" style="text;strokeColor=none;fillColor=none;html=1;fontSize=24;fontStyle=1;verticalAlign=middle;align=center;" vertex="1" parent="1">
          <mxGeometry x="325" y="480" width="100" height="40" as="geometry" />
        </mxCell>
        <mxCell id="mIU1D5ZuT8uLv7KCduvP-22" value="32&quot; flat" style="text;strokeColor=none;fillColor=none;html=1;fontSize=24;fontStyle=1;verticalAlign=middle;align=center;" vertex="1" parent="1">
          <mxGeometry x="165" y="480" width="100" height="40" as="geometry" />
        </mxCell>
        <mxCell id="mIU1D5ZuT8uLv7KCduvP-23" value="32&quot; flat" style="text;strokeColor=none;fillColor=none;html=1;fontSize=24;fontStyle=1;verticalAlign=middle;align=center;" vertex="1" parent="1">
          <mxGeometry x="480" y="480" width="100" height="40" as="geometry" />
        </mxCell>
        <mxCell id="mIU1D5ZuT8uLv7KCduvP-24" value="49&quot; curved" style="text;strokeColor=none;fillColor=none;html=1;fontSize=24;fontStyle=1;verticalAlign=middle;align=center;" vertex="1" parent="1">
          <mxGeometry x="330" y="660" width="100" height="40" as="geometry" />
        </mxCell>
        <mxCell id="mIU1D5ZuT8uLv7KCduvP-25" value="32&quot; flat" style="text;strokeColor=none;fillColor=none;html=1;fontSize=24;fontStyle=1;verticalAlign=middle;align=center;" vertex="1" parent="1">
          <mxGeometry x="595" y="650" width="100" height="40" as="geometry" />
        </mxCell>
        <mxCell id="mIU1D5ZuT8uLv7KCduvP-26" value="32&quot; flat" style="text;strokeColor=none;fillColor=none;html=1;fontSize=24;fontStyle=1;verticalAlign=middle;align=center;" vertex="1" parent="1">
          <mxGeometry x="505" y="650" width="100" height="40" as="geometry" />
        </mxCell>
      </root>
    </mxGraphModel>
  </diagram>
</mxfile>
